<?xml version="1.0" encoding="utf-8"?>

<svg version="1.0" id="Capa_1" xmlns="http://www.w3.org/2000/svg" xmlns:xlink="http://www.w3.org/1999/xlink" x="0px" y="0px"
	 viewBox="0 0 2971.11 2108.23" style="enable-background:new 0 0 2971.11 2108.23;" xml:space="preserve">
<style type="text/css">
	.st0{fill:#1D1E1C;}
	.st1{fill-rule:evenodd;clip-rule:evenodd;fill:#B0F6F1;}
	.st2{fill-rule:evenodd;clip-rule:evenodd;fill:#6DE0E9;}
	.st3{fill-rule:evenodd;clip-rule:evenodd;fill:#6CC4E4;}
	.st4{fill-rule:evenodd;clip-rule:evenodd;fill:#62FFFB;}
	.st5{fill-rule:evenodd;clip-rule:evenodd;fill:#00FFFA;}
	.st6{fill-rule:evenodd;clip-rule:evenodd;fill:#71D9D3;}
	.st7{fill-rule:evenodd;clip-rule:evenodd;fill:#00E4FF;}
	.st8{fill-rule:evenodd;clip-rule:evenodd;fill:#09F5F7;}
	.st9{fill-rule:evenodd;clip-rule:evenodd;fill:#A965D8;}
	.st10{fill-rule:evenodd;clip-rule:evenodd;fill:#835CFF;}
	.st11{fill-rule:evenodd;clip-rule:evenodd;fill:#D67EE7;}
	.st12{fill-rule:evenodd;clip-rule:evenodd;fill:#55D1F1;}
	.st13{fill-rule:evenodd;clip-rule:evenodd;fill:#00E8FF;}
	.st14{fill-rule:evenodd;clip-rule:evenodd;fill:#9F8CFD;}
	.st15{fill-rule:evenodd;clip-rule:evenodd;fill:#EC6DA5;}
	.st16{fill-rule:evenodd;clip-rule:evenodd;fill:#DC4A85;}
	.st17{fill-rule:evenodd;clip-rule:evenodd;fill:#E65D91;}
	.st18{fill-rule:evenodd;clip-rule:evenodd;fill:#F88E90;}
	.st19{fill-rule:evenodd;clip-rule:evenodd;fill:#FFBA86;}
	.st20{fill:#FF738F;}
	.st21{fill:#2BFFDF;}
	.st22{fill:#5CE4D0;}
	.st23{fill:#FF868F;}
	.st24{fill:#C52D72;}
	.st25{fill:#E73B89;}
	.st26{fill:#F3388B;}
	.st27{fill:#B23C68;}
	.st28{fill:#00A6C1;}
	.st29{fill:#6CC0B8;}
	.st30{fill:#00D4CB;}
	.st31{fill:#5DF4E8;}
	.st32{fill:#FFFFFF;}
	.st33{fill:#808080;}
</style>
<g>
	<rect x="1011.65" y="534.53" class="st0" width="49.59" height="49.59"/>
	<polygon class="st1" points="852.24,0.8 889.65,311.51 366.03,532.47 	"/>
	<polygon class="st2" points="1159.35,277.44 851.44,0 889.65,311.51 	"/>
	<polygon class="st3" points="1002.02,811.62 1159.35,277.44 889.65,311.51 	"/>
	<polygon class="st4" points="366.03,532.47 992.56,771.37 889.65,311.51 	"/>
	<polygon class="st5" points="1462.44,904.47 1159.24,277.12 1002.02,811.62 	"/>
	<polygon class="st6" points="1120.29,1312.46 1002.02,811.62 1462.44,904.47 	"/>
	<polygon class="st7" points="1332.54,1242.85 1462.44,904.47 1120.29,1312.46 	"/>
	<polygon class="st8" points="1217.08,1715.93 1332.54,1242.85 1120.29,1312.46 	"/>
	<polygon class="st9" points="1951.56,1032.77 1332.54,1242.85 1462.44,904.47 	"/>
	<polygon class="st10" points="1834.93,853.15 1951.56,1032.77 1462.44,904.47 	"/>
	<polygon class="st11" points="1621.2,527.61 1834.93,853.15 1462.44,904.47 	"/>
	<polygon class="st12" points="1621.2,527.61 1462.44,904.47 1159.35,277.44 	"/>
	<polygon class="st13" points="1159.35,277.44 1377.45,52.92 1621.2,527.61 	"/>
	<polygon class="st14" points="1686.95,165.18 1621.2,527.61 1377.45,52.92 	"/>
	<polygon class="st15" points="1889.02,24.06 1621.2,527.61 1686.95,165.18 	"/>
	<polygon class="st16" points="1951.56,1032.77 1889.02,24.06 1621.2,527.61 	"/>
	<polygon class="st17" points="2272.3,431.39 1889.02,24.06 1951.56,1032.77 	"/>
	<polygon class="st18" points="2366.91,264.61 2272.3,431.39 1889.02,24.06 	"/>
	<polygon class="st19" points="2390.97,222.91 2272.3,431.39 2889.8,675.85 	"/>
	<polygon class="st16" points="1951.56,1032.77 2889.8,675.85 2272.3,431.39 	"/>
	<polygon class="st20" points="1243.54,1652.5 1285.27,1652.5 1512.96,1440.73 1512.96,1403.93 1552.51,1403.93 1951.56,1032.77 
		1332.54,1242.85 1217.08,1715.93 1243.54,1691.32 	"/>
	<polygon class="st21" points="143.42,812.18 143.42,821.8 127.38,821.8 127.38,861.89 215.58,861.89 215.58,876.33 250.86,876.33 
		250.86,887.26 992.56,771.37 323.83,516.38 0,809.89 68.04,789.73 	"/>
	<polygon class="st22" points="1098.89,1221.83 992.56,771.37 250.86,887.26 250.86,903.59 239.64,903.59 239.64,937.27 
		258.88,937.27 258.88,1015.85 282.94,1015.85 282.94,1039.9 	"/>
	<polygon class="st23" points="2539.31,1120.08 2516.86,1120.08 2516.86,1110.46 2645.15,1063.96 2667.6,1097.63 2680.43,1097.63 
		2680.43,1116.88 2696.47,1142.54 2682.03,1142.54 2682.03,1160.18 2706.09,1160.18 2706.09,1057.54 2685.24,1057.54 
		2685.24,1027.07 2709.3,1011.03 2725.33,1011.03 2741.37,1011.03 2781.46,1011.03 2781.46,985.38 2810.33,969.34 2810.33,916.42 
		2821.55,916.42 2821.55,876.33 2799.1,876.33 2799.1,868.31 2884.1,831.42 2938.62,831.42 2938.62,813.78 2916.17,813.78 
		2916.17,789.73 2971.11,758.33 2889.8,675.85 1951.56,1032.77 2539.31,1136.56 	"/>
	<polygon class="st24" points="2114.33,1407.14 2114.33,1524.92 2406.2,1453.64 2406.2,1424.78 2375.73,1416.76 2375.73,1395.92 
		2460.73,1395.92 2460.73,1349.41 2417.43,1349.41 2508.84,1285.26 2508.84,1249.98 2478.37,1249.98 2478.37,1240.36 
		2539.31,1219.51 2539.31,1136.56 1951.56,1032.77 2017.88,1407.14 	"/>
	<polygon class="st25" points="1375.04,1770.16 1410.32,1782.27 1410.32,1588.36 1512.96,1588.36 1512.96,1440.73 1285.27,1652.5 
		1375.04,1652.5 	"/>
	<polygon class="st26" points="1660.49,1403.93 1660.49,1676.56 1689.36,1676.56 1689.36,1556.28 1801.62,1556.28 1801.62,1493.74 
		1921.89,1493.74 1921.89,1671.75 1965.19,1671.75 1965.19,1407.14 2017.88,1407.14 1951.56,1032.77 1552.51,1403.93 	"/>
	<polygon class="st25" points="1243.54,1691.32 1217.08,1715.93 1243.54,1725.02 	"/>
	<polygon class="st27" points="2127.16,1676.56 2127.16,1715.05 2139.99,1700.61 2162.44,1699.01 2162.44,1657.32 2141.6,1657.32 
		2141.6,1644.49 2226.59,1614.02 2295.55,1614.02 2295.55,1668.54 2319.6,1668.54 2319.6,1593.17 2345.26,1593.17 2345.26,1559.49 
		2322.81,1559.49 2322.81,1535.44 2390.17,1535.44 2390.17,1458.46 2406.2,1458.46 2406.2,1453.64 2114.33,1524.92 2114.33,1676.56 
			"/>
	<polygon class="st28" points="1225.9,1795.23 1225.9,1801.65 1198.64,1801.65 1198.64,1832.12 1208.26,1832.12 1208.26,1844.95 
		1243.54,1844.95 1243.54,1725.02 1217.08,1715.93 1187.8,1789.04 	"/>
	<polygon class="st28" points="1375.04,1856.17 1410.32,1856.17 1410.32,1782.27 1375.04,1770.16 	"/>
	<polygon class="st29" points="924.41,1735.9 956.48,1740.71 958.08,1779.19 1036.66,1726.27 1092.79,1745.52 1092.79,1751.93 
		1075.15,1751.93 1075.15,1795.23 1097.6,1774.38 1187.8,1789.04 1217.08,1715.93 924.41,1715.93 	"/>
	<polygon class="st30" points="1098.89,1221.83 618.11,1394.42 618.11,1437.61 688.67,1437.61 688.67,1447.23 674.23,1447.23 
		674.23,1501.76 696.69,1487.33 730.36,1487.33 730.36,1573.92 757.62,1573.92 757.62,1591.56 731.97,1591.56 731.97,1620.43 
		877.9,1660.52 893.94,1666.94 958.08,1686.18 958.08,1700.61 924.41,1700.61 924.41,1715.93 1217.08,1715.93 	"/>
	<polygon class="st31" points="286.34,1040 310.79,1046.58 325.22,1049.79 365.31,1061.01 365.31,1097.9 347.67,1097.9 
		347.67,1243.83 572.19,1255.06 572.19,1279.11 549.73,1279.11 549.73,1324.02 613.88,1356.09 613.88,1375.33 604.26,1375.33 
		604.26,1399.15 1098.89,1221.83 	"/>
	<path class="st32" d="M494.15,990.74V498h111.81v394.89h253.4v97.84H494.15z"/>
	<path class="st32" d="M1112.75,990.74v-40.83c-13.56,14.55-29.77,26.17-48.65,34.84c-18.88,8.68-41.87,13.02-68.98,13.02
		c-18.4,0-35.7-2.46-51.91-7.39c-16.22-4.93-30.38-12.32-42.47-22.17c-12.1-9.85-21.67-21.93-28.68-36.25
		c-7.02-14.31-10.53-30.85-10.53-49.63v-1.41c0-20.64,3.87-38.47,11.62-53.5c7.74-15.01,18.52-27.45,32.31-37.31
		c13.79-9.85,30.24-17.25,49.37-22.17c19.11-4.93,40.3-7.39,63.53-7.39c19.84,0,37.14,1.41,51.91,4.22
		c14.76,2.82,29.16,6.58,43.2,11.26v-6.34c0-22.52-7.02-39.65-21.06-51.38c-14.05-11.72-34.85-17.6-62.44-17.6
		c-21.31,0-40.06,1.76-56.27,5.28c-16.22,3.52-33.29,8.57-51.19,15.13l-27.59-81.65c21.29-8.91,43.56-16.19,66.8-21.82
		c23.23-5.63,51.3-8.45,84.22-8.45c60.5,0,104.55,14.32,132.14,42.94c27.59,28.63,41.39,68.52,41.39,119.66v218.92H1112.75z
		 M1114.92,838.69c-9.69-4.22-20.45-7.62-32.31-10.21c-11.87-2.57-24.57-3.87-38.12-3.87c-23.72,0-42.36,4.47-55.91,13.37
		c-13.56,8.92-20.33,21.82-20.33,38.72v1.41c0,14.55,5.56,25.81,16.7,33.79c11.13,7.98,25.65,11.97,43.56,11.97
		c26.14,0,47.07-6.09,62.81-18.3c15.72-12.2,23.6-28.16,23.6-47.87V838.69z"/>
	<path class="st32" d="M1780.71,745.07c-10.65,21.59-25.3,39.66-43.93,54.2c-18.64,14.55-40.42,25.46-65.34,32.73
		c-24.94,7.28-51.68,10.91-80.23,10.91h-84.95v147.82h-111.81V498h207.65c30.5,0,57.72,4.11,81.68,12.32
		c23.96,8.22,44.29,19.83,60.99,34.84c16.7,15.02,29.52,32.97,38.48,53.85c8.95,20.89,13.43,43.99,13.43,69.33v1.41
		C1796.68,698.38,1791.35,723.5,1780.71,745.07z M1683.42,670.46c0-24.39-8.11-42.94-24.32-55.61
		c-16.22-12.67-38.37-19.01-66.43-19.01h-86.4v150.64h88.58c28.07,0,49.85-7.15,65.34-21.47c15.49-14.31,23.24-32.03,23.24-53.15
		V670.46z"/>
	<path class="st32" d="M2021.03,990.74v-40.83c-13.56,14.55-29.77,26.17-48.65,34.84c-18.88,8.68-41.87,13.02-68.98,13.02
		c-18.4,0-35.7-2.46-51.91-7.39c-16.22-4.93-30.38-12.32-42.47-22.17c-12.1-9.85-21.67-21.93-28.68-36.25
		c-7.02-14.31-10.53-30.85-10.53-49.63v-1.41c0-20.64,3.87-38.47,11.62-53.5c7.74-15.01,18.51-27.45,32.31-37.31
		c13.8-9.85,30.25-17.25,49.37-22.17c19.12-4.93,40.3-7.39,63.53-7.39c19.84,0,37.14,1.41,51.91,4.22
		c14.76,2.82,29.16,6.58,43.2,11.26v-6.34c0-22.52-7.02-39.65-21.06-51.38c-14.04-11.72-34.85-17.6-62.44-17.6
		c-21.3,0-40.06,1.76-56.27,5.28c-16.22,3.52-33.29,8.57-51.19,15.13l-27.59-81.65c21.29-8.91,43.56-16.19,66.8-21.82
		c23.23-5.63,51.3-8.45,84.22-8.45c60.5,0,104.55,14.32,132.14,42.94c27.59,28.63,41.38,68.52,41.38,119.66v218.92H2021.03z
		 M2023.21,838.69c-9.69-4.22-20.46-7.62-32.31-10.21c-11.87-2.57-24.57-3.87-38.12-3.87c-23.72,0-42.36,4.47-55.91,13.37
		c-13.56,8.92-20.33,21.82-20.33,38.72v1.41c0,14.55,5.56,25.81,16.7,33.79c11.13,7.98,25.65,11.97,43.56,11.97
		c26.14,0,47.07-6.09,62.8-18.3c15.72-12.2,23.6-28.16,23.6-47.87V838.69z"/>
	<path class="st32" d="M2135.02,990.74v-75.32l201.12-215.4h-194.58v-86.58h331.81v75.32l-201.84,215.4h201.84v86.58H2135.02z"/>
	<path class="st32" d="M575.84,1160.44c-6.55,3.6-15.05,5.4-25.52,5.4c-7.85,0-15.15-1.44-21.89-4.32
		c-6.74-2.88-12.54-6.77-17.38-11.68c-4.84-4.91-8.64-10.67-11.39-17.28c-2.75-6.61-4.12-13.65-4.12-21.11v-0.39
		c0-7.46,1.37-14.53,4.12-21.21s6.54-12.5,11.39-17.48c4.84-4.97,10.63-8.9,17.38-11.78c6.74-2.88,14.17-4.32,22.28-4.32
		c9.95,0,18.19,1.57,24.74,4.71c6.54,3.14,12.3,7.46,17.28,12.96l-18.26,19.63c-3.41-3.53-6.91-6.35-10.5-8.44
		c-3.6-2.09-8.08-3.14-13.45-3.14c-3.8,0-7.23,0.75-10.31,2.26c-3.08,1.51-5.76,3.57-8.05,6.18c-2.29,2.62-4.06,5.66-5.3,9.13
		c-1.25,3.47-1.87,7.17-1.87,11.09v0.39c0,4.06,0.62,7.85,1.87,11.39c1.24,3.54,3.04,6.61,5.4,9.23c2.36,2.62,5.17,4.68,8.44,6.18
		c3.27,1.51,6.94,2.26,11,2.26c4.97,0,9.33-1.01,13.06-3.04c3.73-2.03,7.43-4.74,11.09-8.15l17.48,17.67
		C588.21,1152.23,582.39,1156.85,575.84,1160.44z"/>
	<path class="st32" d="M606.87,1046.66v-26.51h31.42v26.51H606.87z M607.65,1163.49v-105.24h29.85v105.24H607.65z"/>
	<path class="st32" d="M724.87,1163.49v-15.05c-1.7,2.24-3.57,4.38-5.6,6.43c-2.03,2.04-4.29,3.86-6.77,5.44
		c-2.49,1.58-5.24,2.84-8.25,3.76c-3.01,0.92-6.41,1.38-10.21,1.38c-11.39,0-20.19-3.47-26.41-10.41
		c-6.22-6.94-9.33-16.49-9.33-28.67v-68.13h29.84v58.56c0,7.05,1.57,12.38,4.71,15.97c3.14,3.59,7.59,5.38,13.35,5.38
		c5.76,0,10.31-1.79,13.65-5.38c3.34-3.59,5.01-8.91,5.01-15.97v-58.56h29.84v105.24H724.87z"/>
	<path class="st32" d="M850.92,1163.49v-14.99c-3.67,4.94-8.08,8.99-13.25,12.18c-5.17,3.18-11.68,4.77-19.54,4.77
		c-6.15,0-12.11-1.18-17.87-3.53c-5.76-2.36-10.87-5.86-15.32-10.51c-4.45-4.64-8.02-10.34-10.7-17.08
		c-2.68-6.74-4.02-14.5-4.02-23.27v-0.39c0-8.77,1.34-16.52,4.02-23.27c2.68-6.74,6.22-12.43,10.6-17.08
		c4.38-4.65,9.45-8.15,15.22-10.51c5.76-2.36,11.78-3.53,18.06-3.53c7.98,0,14.56,1.56,19.73,4.68c5.17,3.12,9.52,6.76,13.06,10.91
		v-51.71h29.84v143.33H850.92z M851.31,1110.67c0-4.35-0.69-8.34-2.06-11.96c-1.38-3.62-3.21-6.72-5.5-9.29
		c-2.29-2.57-4.98-4.55-8.05-5.93c-3.08-1.38-6.38-2.08-9.92-2.08c-3.53,0-6.84,0.69-9.92,2.08c-3.08,1.38-5.79,3.36-8.15,5.93
		c-2.36,2.57-4.22,5.63-5.6,9.19c-1.38,3.56-2.06,7.58-2.06,12.06v0.39c0,4.35,0.69,8.34,2.06,11.96c1.37,3.62,3.24,6.72,5.6,9.29
		c2.36,2.57,5.07,4.55,8.15,5.93c3.07,1.38,6.38,2.07,9.92,2.07c3.54,0,6.84-0.69,9.92-2.07c3.07-1.38,5.76-3.36,8.05-5.93
		c2.29-2.57,4.12-5.67,5.5-9.29c1.37-3.62,2.06-7.61,2.06-11.96V1110.67z"/>
	<path class="st32" d="M962.64,1163.49v-11.39c-3.67,4.06-8.05,7.3-13.16,9.72c-5.11,2.42-11.32,3.63-18.65,3.63
		c-4.98,0-9.66-0.69-14.04-2.06c-4.39-1.37-8.22-3.44-11.49-6.18c-3.27-2.75-5.86-6.12-7.76-10.11c-1.9-3.99-2.85-8.61-2.85-13.84
		v-0.39c0-5.76,1.05-10.73,3.14-14.92c2.09-4.19,5.01-7.66,8.74-10.41c3.73-2.75,8.18-4.81,13.35-6.18
		c5.17-1.37,10.9-2.06,17.18-2.06c5.37,0,10.04,0.39,14.04,1.18c3.99,0.79,7.88,1.83,11.68,3.14v-1.77c0-6.28-1.9-11.06-5.69-14.33
		c-3.8-3.27-9.43-4.91-16.89-4.91c-5.76,0-10.83,0.49-15.22,1.47c-4.39,0.98-9,2.39-13.84,4.22l-7.46-22.78
		c5.76-2.48,11.78-4.52,18.06-6.09c6.28-1.57,13.87-2.36,22.78-2.36c16.36,0,28.27,3.99,35.73,11.98
		c7.46,7.99,11.19,19.11,11.19,33.38v61.06H962.64z M963.23,1121.08c-2.62-1.18-5.53-2.13-8.74-2.85
		c-3.21-0.72-6.64-1.08-10.31-1.08c-6.42,0-11.46,1.25-15.12,3.73c-3.67,2.49-5.5,6.09-5.5,10.8v0.39c0,4.06,1.5,7.2,4.52,9.43
		c3.01,2.23,6.94,3.34,11.78,3.34c7.07,0,12.73-1.7,16.99-5.1c4.25-3.4,6.38-7.85,6.38-13.35V1121.08z"/>
	<path class="st32" d="M1086.73,1163.49v-14.99c-3.67,4.94-8.08,8.99-13.25,12.18c-5.17,3.18-11.68,4.77-19.54,4.77
		c-6.15,0-12.11-1.18-17.87-3.53c-5.76-2.36-10.87-5.86-15.32-10.51c-4.45-4.64-8.02-10.34-10.7-17.08
		c-2.68-6.74-4.02-14.5-4.02-23.27v-0.39c0-8.77,1.34-16.52,4.02-23.27c2.68-6.74,6.22-12.43,10.6-17.08
		c4.38-4.65,9.45-8.15,15.22-10.51c5.76-2.36,11.78-3.53,18.06-3.53c7.98,0,14.56,1.56,19.73,4.68c5.17,3.12,9.52,6.76,13.06,10.91
		v-51.71h29.84v143.33H1086.73z M1087.13,1110.67c0-4.35-0.69-8.34-2.06-11.96c-1.38-3.62-3.21-6.72-5.5-9.29
		c-2.29-2.57-4.98-4.55-8.05-5.93c-3.08-1.38-6.38-2.08-9.92-2.08c-3.53,0-6.84,0.69-9.92,2.08c-3.08,1.38-5.79,3.36-8.15,5.93
		c-2.36,2.57-4.22,5.63-5.6,9.19c-1.38,3.56-2.06,7.58-2.06,12.06v0.39c0,4.35,0.69,8.34,2.06,11.96c1.37,3.62,3.24,6.72,5.6,9.29
		c2.36,2.57,5.07,4.55,8.15,5.93c3.07,1.38,6.38,2.07,9.92,2.07c3.54,0,6.84-0.69,9.92-2.07c3.07-1.38,5.76-3.36,8.05-5.93
		c2.29-2.57,4.12-5.67,5.5-9.29c1.37-3.62,2.06-7.61,2.06-11.96V1110.67z"/>
	<path class="st32" d="M1153.49,1132.96c2.09,4.26,4.78,7.85,8.05,10.8c3.27,2.95,6.94,5.17,11,6.68c4.06,1.51,8.31,2.26,12.76,2.26
		c7.07,0,13.12-1.31,18.16-3.93c5.04-2.62,9.65-6.09,13.84-10.41l9.43,8.44c-5.11,5.76-10.93,10.38-17.48,13.84
		c-6.55,3.47-14.66,5.2-24.35,5.2c-6.94,0-13.49-1.28-19.63-3.83c-6.16-2.55-11.54-6.15-16.15-10.8c-4.61-4.64-8.28-10.24-11-16.79
		c-2.72-6.54-4.08-13.74-4.08-21.6c0-7.33,1.21-14.24,3.63-20.71c2.42-6.48,5.79-12.11,10.11-16.89c4.32-4.78,9.45-8.54,15.41-11.29
		c5.95-2.75,12.47-4.12,19.54-4.12c7.46,0,14.14,1.41,20.03,4.22c5.89,2.82,10.86,6.64,14.92,11.49c4.06,4.84,7.13,10.54,9.23,17.08
		c2.09,6.55,3.14,13.55,3.14,21.01c0,0.66,0,1.37,0,2.16s-0.07,1.64-0.2,2.55h-80.31
		C1150.09,1123.82,1151.39,1128.7,1153.49,1132.96z M1214.55,1107.14c-0.39-4.58-1.33-8.97-2.83-13.16c-1.5-4.19-3.58-7.85-6.24-11
		c-2.67-3.14-5.92-5.66-9.76-7.56c-3.84-1.9-8.3-2.85-13.37-2.85c-4.42,0-8.52,0.88-12.3,2.65c-3.77,1.77-7.09,4.19-9.95,7.26
		c-2.86,3.08-5.2,6.71-7.02,10.9c-1.82,4.19-2.99,8.77-3.51,13.74H1214.55z"/>
	<path class="st32" d="M1265.21,1163.49h-15.12v-101.51h15.12v17.67c3.4-5.5,7.85-10.18,13.35-14.04c5.5-3.86,12.63-5.79,21.4-5.79
		c6.15,0,11.62,0.98,16.4,2.95c4.78,1.96,8.84,4.75,12.17,8.35c3.34,3.6,5.89,7.89,7.66,12.86c1.77,4.98,2.65,10.47,2.65,16.49
		v63.03h-15.12v-59.3c0-9.42-2.42-16.89-7.27-22.38c-4.84-5.5-11.78-8.25-20.81-8.25c-4.32,0-8.34,0.75-12.07,2.26
		c-3.73,1.51-6.97,3.67-9.72,6.48c-2.75,2.82-4.88,6.18-6.38,10.11c-1.51,3.93-2.26,8.25-2.26,12.96V1163.49z"/>
	<path class="st32" d="M1491.8,1163.49v-58.56c0-7.05-1.51-12.37-4.52-15.96c-3.01-3.59-7.33-5.39-12.96-5.39
		c-5.63,0-10.05,1.8-13.25,5.39c-3.21,3.59-4.81,8.91-4.81,15.96v58.56h-29.85v-58.56c0-7.05-1.51-12.37-4.51-15.96
		c-3.01-3.59-7.33-5.39-12.96-5.39c-5.63,0-10.05,1.8-13.25,5.39c-3.21,3.59-4.81,8.91-4.81,15.96v58.56h-29.85v-105.24h29.85v15.05
		c1.7-2.24,3.56-4.38,5.6-6.43c2.03-2.04,4.29-3.85,6.77-5.44c2.48-1.58,5.27-2.83,8.34-3.76c3.07-0.92,6.51-1.39,10.31-1.39
		c6.94,0,12.93,1.45,17.96,4.35c5.04,2.9,8.93,7.05,11.68,12.46c4.58-5.53,9.69-9.72,15.32-12.56c5.63-2.84,12.04-4.25,19.24-4.25
		c11.12,0,19.83,3.27,26.11,9.82c6.28,6.55,9.43,16.17,9.43,28.86v68.53H1491.8z"/>
	<path class="st32" d="M1645.54,1132.37c-2.88,6.61-6.87,12.4-11.98,17.38c-5.11,4.98-11.13,8.9-18.06,11.78
		c-6.94,2.88-14.53,4.32-22.78,4.32c-8.12,0-15.64-1.41-22.58-4.22c-6.94-2.81-12.93-6.68-17.96-11.58
		c-5.04-4.91-9-10.67-11.88-17.28c-2.88-6.61-4.32-13.71-4.32-21.3v-0.39c0-7.59,1.44-14.69,4.32-21.3
		c2.88-6.61,6.87-12.4,11.98-17.38c5.11-4.97,11.12-8.9,18.06-11.78c6.94-2.88,14.53-4.32,22.78-4.32c8.11,0,15.64,1.41,22.58,4.22
		c6.94,2.82,12.93,6.68,17.96,11.58c5.04,4.91,9,10.67,11.88,17.28c2.88,6.61,4.32,13.71,4.32,21.3v0.39
		C1649.86,1118.66,1648.42,1125.76,1645.54,1132.37z M1620.41,1111.06c0-3.93-0.66-7.62-1.96-11.09c-1.31-3.47-3.21-6.54-5.69-9.23
		c-2.49-2.68-5.43-4.81-8.84-6.38c-3.4-1.57-7.13-2.36-11.19-2.36c-4.32,0-8.15,0.75-11.49,2.26c-3.34,1.51-6.18,3.57-8.54,6.18
		c-2.36,2.62-4.16,5.66-5.4,9.13c-1.25,3.47-1.87,7.17-1.87,11.09v0.39c0,3.93,0.65,7.63,1.96,11.09c1.31,3.47,3.21,6.55,5.69,9.23
		c2.48,2.68,5.4,4.81,8.74,6.38c3.34,1.57,7.1,2.36,11.29,2.36c4.32,0,8.15-0.75,11.49-2.26c3.34-1.5,6.18-3.56,8.54-6.18
		c2.36-2.62,4.15-5.66,5.4-9.13c1.24-3.47,1.87-7.17,1.87-11.09V1111.06z"/>
	<path class="st32" d="M1724.08,1164.27h-27.1l-41.43-106.03h31.61l23.56,70.49l23.76-70.49h31.02L1724.08,1164.27z"/>
	<path class="st32" d="M1776.89,1046.66v-26.51h31.42v26.51H1776.89z M1777.68,1163.49v-105.24h29.84v105.24H1777.68z"/>
	<path class="st32" d="M1959.89,1163.49v-58.56c0-7.05-1.51-12.37-4.52-15.96c-3.01-3.59-7.33-5.39-12.96-5.39
		c-5.63,0-10.05,1.8-13.25,5.39c-3.21,3.59-4.81,8.91-4.81,15.96v58.56h-29.84v-58.56c0-7.05-1.51-12.37-4.52-15.96
		c-3.01-3.59-7.33-5.39-12.96-5.39c-5.63,0-10.05,1.8-13.25,5.39c-3.21,3.59-4.81,8.91-4.81,15.96v58.56h-29.84v-105.24h29.84v15.05
		c1.7-2.24,3.56-4.38,5.6-6.43c2.03-2.04,4.29-3.85,6.77-5.44c2.49-1.58,5.27-2.83,8.34-3.76c3.07-0.92,6.51-1.39,10.31-1.39
		c6.94,0,12.93,1.45,17.96,4.35c5.04,2.9,8.94,7.05,11.68,12.46c4.58-5.53,9.69-9.72,15.31-12.56c5.63-2.84,12.04-4.25,19.24-4.25
		c11.12,0,19.83,3.27,26.11,9.82c6.28,6.55,9.43,16.17,9.43,28.86v68.53H1959.89z"/>
	<path class="st32" d="M2009.76,1046.66v-26.51h31.42v26.51H2009.76z M2010.54,1163.49v-105.24h29.84v105.24H2010.54z"/>
	<path class="st32" d="M2160.06,1117.54c-0.07,1.05-0.17,2.29-0.29,3.73h-73.24c1.44,6.81,4.42,11.95,8.93,15.41
		c4.51,3.47,10.11,5.2,16.79,5.2c4.97,0,9.43-0.85,13.35-2.55c3.93-1.7,7.98-4.45,12.17-8.25l17.08,15.12
		c-4.97,6.15-11,10.97-18.06,14.43c-7.07,3.47-15.38,5.2-24.94,5.2c-7.85,0-15.15-1.31-21.89-3.93
		c-6.74-2.62-12.57-6.35-17.48-11.19c-4.91-4.84-8.74-10.57-11.49-17.18c-2.75-6.61-4.12-13.97-4.12-22.09v-0.39
		c0-7.46,1.28-14.53,3.83-21.21c2.55-6.68,6.12-12.5,10.7-17.48c4.58-4.97,10.04-8.9,16.4-11.78c6.35-2.88,13.38-4.32,21.11-4.32
		c8.77,0,16.36,1.57,22.78,4.71c6.41,3.14,11.75,7.36,16,12.66c4.25,5.3,7.39,11.39,9.43,18.26c2.03,6.87,3.04,14.04,3.04,21.5v0.39
		C2160.16,1115.25,2160.13,1116.5,2160.06,1117.54z M2124.03,1086.42c-3.8-4.12-8.84-6.19-15.12-6.19c-6.28,0-11.36,2.03-15.22,6.09
		c-3.86,4.06-6.38,9.49-7.56,16.3h44.96C2130.18,1095.94,2127.83,1090.54,2124.03,1086.42z"/>
	<path class="st32" d="M2242.43,1163.49v-58.56c0-7.05-1.57-12.37-4.71-15.96c-3.14-3.59-7.59-5.39-13.35-5.39
		c-5.76,0-10.31,1.8-13.65,5.39c-3.34,3.59-5.01,8.91-5.01,15.96v58.56h-29.84v-105.24h29.84v15.05c1.7-2.24,3.56-4.38,5.6-6.43
		c2.03-2.04,4.29-3.85,6.77-5.44c2.49-1.58,5.23-2.83,8.25-3.76c3.01-0.92,6.41-1.39,10.21-1.39c11.39,0,20.19,3.47,26.41,10.41
		c6.22,6.94,9.33,16.49,9.33,28.67v68.13H2242.43z"/>
	<path class="st32" d="M2340.4,1163.59c-3.8,1.11-8.18,1.67-13.16,1.67c-4.58,0-8.74-0.49-12.47-1.47c-3.73-0.98-6.94-2.71-9.62-5.2
		c-2.68-2.48-4.78-5.72-6.28-9.72c-1.51-3.99-2.26-9.06-2.26-15.22v-49.87h-12.57v-25.53h12.57v-26.9h29.84v26.9h24.74v25.53h-24.74
		v44.96c0,6.81,3.21,10.21,9.62,10.21c5.23,0,10.14-1.24,14.73-3.73v23.95C2347.67,1161,2344.2,1162.47,2340.4,1163.59z"/>
	<path class="st32" d="M2471.17,1132.37c-2.88,6.61-6.87,12.4-11.98,17.38c-5.11,4.98-11.13,8.9-18.06,11.78
		c-6.94,2.88-14.53,4.32-22.78,4.32c-8.12,0-15.64-1.41-22.58-4.22c-6.94-2.81-12.93-6.68-17.96-11.58
		c-5.04-4.91-9-10.67-11.88-17.28c-2.88-6.61-4.32-13.71-4.32-21.3v-0.39c0-7.59,1.44-14.69,4.32-21.3
		c2.88-6.61,6.87-12.4,11.98-17.38c5.11-4.97,11.12-8.9,18.06-11.78c6.94-2.88,14.53-4.32,22.78-4.32c8.11,0,15.64,1.41,22.58,4.22
		c6.94,2.82,12.93,6.68,17.96,11.58c5.04,4.91,9,10.67,11.88,17.28c2.88,6.61,4.32,13.71,4.32,21.3v0.39
		C2475.49,1118.66,2474.05,1125.76,2471.17,1132.37z M2446.04,1111.06c0-3.93-0.66-7.62-1.96-11.09c-1.31-3.47-3.21-6.54-5.7-9.23
		c-2.49-2.68-5.43-4.81-8.84-6.38c-3.4-1.57-7.13-2.36-11.19-2.36c-4.32,0-8.15,0.75-11.49,2.26c-3.34,1.51-6.18,3.57-8.54,6.18
		c-2.36,2.62-4.16,5.66-5.4,9.13c-1.25,3.47-1.87,7.17-1.87,11.09v0.39c0,3.93,0.65,7.63,1.96,11.09c1.31,3.47,3.21,6.55,5.69,9.23
		c2.48,2.68,5.4,4.81,8.74,6.38c3.34,1.57,7.1,2.36,11.29,2.36c4.32,0,8.15-0.75,11.49-2.26c3.34-1.5,6.18-3.56,8.54-6.18
		c2.36-2.62,4.15-5.66,5.4-9.13c1.24-3.47,1.87-7.17,1.87-11.09V1111.06z"/>
	<path class="st33" d="M95.63,2102.49c-8.81,3.83-18.89,5.75-30.24,5.75c-9.69,0-18.53-1.59-26.51-4.78
		c-7.98-3.18-14.84-7.6-20.57-13.26c-5.74-5.66-10.2-12.38-13.39-20.16c-3.19-7.78-4.79-16.27-4.79-25.47v-0.35
		c0-8.84,1.62-17.13,4.88-24.85c3.25-7.72,7.77-14.5,13.57-20.34c5.79-5.84,12.65-10.44,20.57-13.8c7.92-3.36,16.61-5.04,26.07-5.04
		c5.55,0,10.61,0.38,15.16,1.15c4.55,0.77,8.78,1.86,12.68,3.27c3.9,1.41,7.56,3.18,10.99,5.31c3.43,2.12,6.74,4.54,9.93,7.25
		l-17.2,20.69c-2.37-2-4.73-3.77-7.09-5.31c-2.37-1.53-4.82-2.83-7.36-3.89c-2.54-1.06-5.29-1.89-8.25-2.48
		c-2.96-0.59-6.21-0.88-9.75-0.88c-4.97,0-9.61,1.04-13.92,3.1c-4.32,2.07-8.1,4.84-11.35,8.33c-3.25,3.49-5.79,7.56-7.63,12.23
		c-1.83,4.67-2.75,9.66-2.75,14.98v0.35c0,5.67,0.91,10.9,2.75,15.69c1.83,4.79,4.43,8.95,7.8,12.5c3.37,3.54,7.33,6.29,11.88,8.24
		c4.55,1.95,9.6,2.92,15.16,2.92c10.17,0,18.74-2.49,25.71-7.48v-17.81H64.51v-23.52h53.91v53.77
		C112.04,2094.03,104.44,2098.66,95.63,2102.49z"/>
	<path class="st33" d="M253.9,2069.06c-3.31,7.72-7.89,14.5-13.74,20.34c-5.85,5.84-12.83,10.43-20.93,13.79
		c-8.1,3.36-16.93,5.04-26.51,5.04c-9.58,0-18.38-1.68-26.42-5.04c-8.04-3.36-14.98-7.9-20.84-13.62
		c-5.85-5.72-10.4-12.44-13.65-20.16c-3.25-7.72-4.88-16.01-4.88-24.85v-0.35c0-8.84,1.65-17.13,4.97-24.85
		c3.31-7.72,7.89-14.5,13.74-20.34c5.85-5.84,12.83-10.44,20.93-13.8c8.1-3.36,16.94-5.04,26.51-5.04c9.58,0,18.38,1.68,26.42,5.04
		c8.04,3.36,14.98,7.9,20.84,13.62c5.85,5.72,10.4,12.44,13.65,20.16c3.25,7.72,4.88,16.01,4.88,24.85v0.35
		C258.87,2053.05,257.21,2061.34,253.9,2069.06z M230.31,2044.21c0-5.31-0.92-10.32-2.75-15.03c-1.83-4.72-4.43-8.84-7.8-12.38
		c-3.37-3.54-7.36-6.34-11.97-8.4c-4.61-2.06-9.64-3.1-15.07-3.1c-5.56,0-10.61,1-15.16,3.01c-4.55,2.01-8.45,4.77-11.7,8.31
		c-3.25,3.54-5.79,7.64-7.63,12.29c-1.83,4.66-2.75,9.64-2.75,14.94v0.35c0,5.31,0.91,10.32,2.75,15.03
		c1.83,4.72,4.43,8.84,7.8,12.38c3.37,3.54,7.33,6.34,11.88,8.4c4.55,2.06,9.6,3.09,15.16,3.09c5.44,0,10.46-1,15.07-3.01
		c4.61-2,8.54-4.78,11.79-8.31c3.25-3.54,5.79-7.63,7.62-12.29c1.83-4.66,2.75-9.64,2.75-14.95V2044.21z"/>
	<path class="st33" d="M372.98,2087.01c-2.18,4.24-5.31,7.78-9.38,10.61c-4.07,2.83-8.97,4.95-14.69,6.37
		c-5.72,1.42-12.07,2.12-19.03,2.12h-58.95v-123.81h57.53c12.74,0,22.74,2.89,30,8.67c7.26,5.78,10.89,13.56,10.89,23.35v0.35
		c0,3.54-0.44,6.66-1.32,9.37c-0.88,2.72-2.06,5.16-3.53,7.34c-1.47,2.18-3.17,4.1-5.11,5.75c-1.94,1.65-4.02,3.07-6.25,4.25
		c7.18,2.71,12.82,6.4,16.95,11.05c4.12,4.66,6.18,11.12,6.18,19.37v0.35C376.26,2077.81,375.17,2082.77,372.98,2087.01z
		 M342.39,2018.92c0-4.13-1.54-7.28-4.61-9.46c-3.08-2.18-7.51-3.27-13.3-3.27h-26.95v26.18h25.18c6.03,0,10.82-1.03,14.36-3.09
		c3.55-2.06,5.32-5.39,5.32-9.99V2018.92z M349.3,2068.44c0-4.13-1.6-7.4-4.79-9.82c-3.19-2.42-8.34-3.63-15.43-3.63h-31.56v27.24
		h32.45c6.03,0,10.76-1.09,14.19-3.27c3.43-2.18,5.14-5.57,5.14-10.17V2068.44z"/>
	<path class="st33" d="M387.96,2106.11v-123.81h27.31v123.81H387.96z"/>
	<path class="st33" d="M434.06,2106.11v-123.81h93.45v24.23h-66.5v25.12h58.52v24.23h-58.52v26h67.39v24.23H434.06z"/>
	<path class="st33" d="M616.01,2106.11l-26.6-39.62h-21.46v39.62h-27.31v-123.81h56.75c14.78,0,26.27,3.6,34.49,10.79
		c8.22,7.19,12.32,17.22,12.32,30.07v0.35c0,10.02-2.46,18.19-7.36,24.5c-4.91,6.31-11.32,10.94-19.24,13.88l30.32,44.22H616.01z
		 M616.54,2024.58c0-5.9-1.89-10.32-5.68-13.26c-3.78-2.95-9.04-4.42-15.78-4.42h-27.13v35.55h27.66c6.74,0,11.91-1.59,15.52-4.78
		c3.6-3.18,5.41-7.43,5.41-12.73V2024.58z"/>
	<path class="st33" d="M743.68,2106.11l-60.11-78.71v78.71h-26.96v-123.81h25.18l58.16,76.23v-76.23h26.96v123.81H743.68z"/>
	<path class="st33" d="M905.94,2069.06c-3.31,7.72-7.89,14.5-13.74,20.34c-5.85,5.84-12.83,10.43-20.93,13.79
		c-8.1,3.36-16.93,5.04-26.51,5.04c-9.58,0-18.38-1.68-26.42-5.04c-8.04-3.36-14.98-7.9-20.84-13.62
		c-5.85-5.72-10.4-12.44-13.65-20.16c-3.25-7.72-4.88-16.01-4.88-24.85v-0.35c0-8.84,1.65-17.13,4.97-24.85
		c3.31-7.72,7.89-14.5,13.74-20.34c5.85-5.84,12.83-10.44,20.93-13.8c8.1-3.36,16.94-5.04,26.51-5.04c9.58,0,18.38,1.68,26.42,5.04
		c8.04,3.36,14.98,7.9,20.84,13.62c5.85,5.72,10.4,12.44,13.66,20.16c3.25,7.72,4.88,16.01,4.88,24.85v0.35
		C910.91,2053.05,909.25,2061.34,905.94,2069.06z M882.36,2044.21c0-5.31-0.92-10.32-2.75-15.03c-1.83-4.72-4.43-8.84-7.8-12.38
		c-3.37-3.54-7.36-6.34-11.97-8.4c-4.61-2.06-9.64-3.1-15.07-3.1c-5.56,0-10.61,1-15.16,3.01c-4.55,2.01-8.45,4.77-11.7,8.31
		c-3.25,3.54-5.79,7.64-7.63,12.29c-1.83,4.66-2.75,9.64-2.75,14.94v0.35c0,5.31,0.91,10.32,2.75,15.03
		c1.83,4.72,4.43,8.84,7.8,12.38c3.37,3.54,7.33,6.34,11.88,8.4c4.55,2.06,9.6,3.09,15.16,3.09c5.44,0,10.46-1,15.07-3.01
		c4.61-2,8.54-4.78,11.79-8.31c3.25-3.54,5.79-7.63,7.62-12.29c1.83-4.66,2.75-9.64,2.75-14.95V2044.21z"/>
	<path class="st33" d="M1056.32,2106.11l-11.35-27.77h-52.49l-11.35,27.77h-27.84l53.2-124.69h25.18l53.2,124.69H1056.32z
		 M1018.72,2014.14l-16.49,40.15h32.98L1018.72,2014.14z"/>
	<path class="st33" d="M1194.19,2076.75c-2.54,6.96-6.18,12.76-10.91,17.42c-4.73,4.66-10.46,8.14-17.2,10.44
		c-6.74,2.3-14.25,3.45-22.52,3.45c-16.67,0-29.79-4.6-39.37-13.79c-9.57-9.2-14.36-22.93-14.36-41.21v-70.75h27.31v70.04
		c0,10.14,2.36,17.78,7.09,22.9c4.73,5.13,11.29,7.7,19.68,7.7c8.39,0,14.95-2.48,19.69-7.43c4.73-4.95,7.09-12.38,7.09-22.29
		v-70.92H1198v69.86C1198,2061.6,1196.73,2069.8,1194.19,2076.75z"/>
	<path class="st33" d="M1269.82,2007.42v98.69h-27.31v-98.69h-37.77v-25.12h102.85v25.12H1269.82z"/>
	<path class="st33" d="M1437.75,2069.06c-3.31,7.72-7.89,14.5-13.74,20.34c-5.85,5.84-12.83,10.43-20.93,13.79
		c-8.1,3.36-16.94,5.04-26.51,5.04c-9.58,0-18.39-1.68-26.42-5.04c-8.04-3.36-14.99-7.9-20.84-13.62
		c-5.85-5.72-10.41-12.44-13.66-20.16c-3.25-7.72-4.88-16.01-4.88-24.85v-0.35c0-8.84,1.65-17.13,4.97-24.85
		c3.31-7.72,7.89-14.5,13.74-20.34c5.85-5.84,12.83-10.44,20.93-13.8c8.1-3.36,16.94-5.04,26.51-5.04c9.57,0,18.38,1.68,26.42,5.04
		c8.04,3.36,14.99,7.9,20.84,13.62c5.85,5.72,10.4,12.44,13.65,20.16c3.25,7.72,4.88,16.01,4.88,24.85v0.35
		C1442.72,2053.05,1441.06,2061.34,1437.75,2069.06z M1414.17,2044.21c0-5.31-0.92-10.32-2.75-15.03c-1.84-4.72-4.43-8.84-7.8-12.38
		c-3.37-3.54-7.36-6.34-11.97-8.4c-4.61-2.06-9.64-3.1-15.07-3.1c-5.56,0-10.61,1-15.16,3.01c-4.55,2.01-8.45,4.77-11.7,8.31
		c-3.25,3.54-5.79,7.64-7.62,12.29c-1.84,4.66-2.75,9.64-2.75,14.94v0.35c0,5.31,0.91,10.32,2.75,15.03
		c1.83,4.72,4.43,8.84,7.8,12.38c3.37,3.54,7.33,6.34,11.88,8.4c4.55,2.06,9.6,3.09,15.16,3.09c5.44,0,10.46-1,15.07-3.01
		s8.54-4.78,11.79-8.31c3.25-3.54,5.79-7.63,7.63-12.29c1.83-4.66,2.75-9.64,2.75-14.95V2044.21z M1367.18,1972.58l20.04-31.3
		l23.23,10.08l-22.7,21.22H1367.18z"/>
	<path class="st33" d="M1541.85,2106.11l-60.12-78.71v78.71h-26.95v-123.81h25.18l58.17,76.23v-76.23h26.95v123.81H1541.85z"/>
	<path class="st33" d="M1704.1,2069.06c-3.31,7.72-7.89,14.5-13.74,20.34c-5.85,5.84-12.83,10.43-20.93,13.79
		c-8.1,3.36-16.93,5.04-26.51,5.04c-9.58,0-18.38-1.68-26.42-5.04c-8.04-3.36-14.98-7.9-20.84-13.62
		c-5.85-5.72-10.41-12.44-13.66-20.16c-3.25-7.72-4.88-16.01-4.88-24.85v-0.35c0-8.84,1.65-17.13,4.97-24.85
		c3.31-7.72,7.89-14.5,13.74-20.34c5.85-5.84,12.82-10.44,20.93-13.8c8.1-3.36,16.93-5.04,26.51-5.04s18.38,1.68,26.42,5.04
		c8.04,3.36,14.98,7.9,20.84,13.62c5.85,5.72,10.4,12.44,13.65,20.16c3.25,7.72,4.88,16.01,4.88,24.85v0.35
		C1709.07,2053.05,1707.41,2061.34,1704.1,2069.06z M1680.52,2044.21c0-5.31-0.92-10.32-2.75-15.03c-1.83-4.72-4.43-8.84-7.8-12.38
		c-3.37-3.54-7.36-6.34-11.97-8.4c-4.61-2.06-9.64-3.1-15.07-3.1c-5.56,0-10.61,1-15.16,3.01c-4.55,2.01-8.45,4.77-11.7,8.31
		c-3.25,3.54-5.79,7.64-7.62,12.29c-1.83,4.66-2.75,9.64-2.75,14.94v0.35c0,5.31,0.91,10.32,2.75,15.03
		c1.83,4.72,4.43,8.84,7.8,12.38c3.37,3.54,7.33,6.34,11.88,8.4c4.55,2.06,9.6,3.09,15.16,3.09c5.44,0,10.46-1,15.07-3.01
		s8.54-4.78,11.79-8.31c3.25-3.54,5.79-7.63,7.62-12.29c1.83-4.66,2.75-9.64,2.75-14.95V2044.21z"/>
	<path class="st33" d="M1818.3,2106.11v-80.83l-34.93,52.88h-0.71l-34.58-52.35v80.3h-26.95v-123.81h29.44l32.63,52.35l32.63-52.35
		h29.44v123.81H1818.3z"/>
	<path class="st33" d="M1984.29,2069.06c-3.31,7.72-7.89,14.5-13.74,20.34c-5.85,5.84-12.83,10.43-20.93,13.79
		c-8.1,3.36-16.93,5.04-26.51,5.04s-18.38-1.68-26.42-5.04c-8.04-3.36-14.98-7.9-20.84-13.62c-5.85-5.72-10.41-12.44-13.65-20.16
		c-3.25-7.72-4.88-16.01-4.88-24.85v-0.35c0-8.84,1.65-17.13,4.97-24.85c3.31-7.72,7.89-14.5,13.74-20.34
		c5.85-5.84,12.82-10.44,20.93-13.8c8.1-3.36,16.93-5.04,26.51-5.04c9.58,0,18.38,1.68,26.42,5.04c8.04,3.36,14.98,7.9,20.84,13.62
		c5.85,5.72,10.4,12.44,13.66,20.16c3.25,7.72,4.88,16.01,4.88,24.85v0.35C1989.25,2053.05,1987.6,2061.34,1984.29,2069.06z
		 M1960.7,2044.21c0-5.31-0.92-10.32-2.75-15.03c-1.83-4.72-4.43-8.84-7.8-12.38c-3.37-3.54-7.36-6.34-11.97-8.4
		c-4.61-2.06-9.64-3.1-15.07-3.1c-5.56,0-10.61,1-15.16,3.01c-4.55,2.01-8.45,4.77-11.7,8.31c-3.25,3.54-5.79,7.64-7.62,12.29
		c-1.83,4.66-2.75,9.64-2.75,14.94v0.35c0,5.31,0.91,10.32,2.75,15.03c1.83,4.72,4.43,8.84,7.8,12.38c3.37,3.54,7.33,6.34,11.88,8.4
		c4.55,2.06,9.6,3.09,15.16,3.09c5.44,0,10.46-1,15.07-3.01c4.61-2,8.54-4.78,11.79-8.31c3.25-3.54,5.79-7.63,7.62-12.29
		c1.83-4.66,2.75-9.64,2.75-14.95V2044.21z"/>
	<path class="st33" d="M2139.45,2106.11v-80.83l-34.93,52.88h-0.71l-34.58-52.35v80.3h-26.95v-123.81h29.44l32.63,52.35l32.63-52.35
		h29.44v123.81H2139.45z"/>
	<path class="st33" d="M2286.37,2076.75c-2.54,6.96-6.18,12.76-10.91,17.42c-4.73,4.66-10.46,8.14-17.2,10.44
		c-6.74,2.3-14.25,3.45-22.52,3.45c-16.67,0-29.79-4.6-39.37-13.79c-9.57-9.2-14.36-22.93-14.36-41.21v-70.75h27.31v70.04
		c0,10.14,2.36,17.78,7.09,22.9c4.73,5.13,11.29,7.7,19.68,7.7c8.39,0,14.95-2.48,19.68-7.43c4.73-4.95,7.09-12.38,7.09-22.29
		v-70.92h27.31v69.86C2290.18,2061.6,2288.91,2069.8,2286.37,2076.75z"/>
	<path class="st33" d="M2392.86,2106.11l-60.12-78.71v78.71h-26.95v-123.81h25.18l58.17,76.23v-76.23h26.95v123.81H2392.86z"/>
	<path class="st33" d="M2434.88,2106.11v-123.81h27.31v123.81H2434.88z"/>
	<path class="st33" d="M2580.12,2095.32c-3.43,2.72-7.18,5.04-11.26,6.99c-4.08,1.95-8.54,3.42-13.39,4.42
		c-4.85,1-10.29,1.5-16.31,1.5c-9.11,0-17.56-1.65-25.36-4.95c-7.8-3.3-14.54-7.81-20.22-13.53c-5.67-5.72-10.11-12.47-13.3-20.25
		c-3.19-7.78-4.79-16.09-4.79-24.94v-0.35c0-8.84,1.6-17.13,4.79-24.85c3.19-7.72,7.63-14.5,13.3-20.34
		c5.67-5.84,12.47-10.44,20.39-13.8c7.92-3.36,16.67-5.04,26.25-5.04c5.79,0,11.08,0.47,15.87,1.41c4.79,0.95,9.13,2.24,13.03,3.89
		c3.9,1.65,7.51,3.66,10.82,6.01c3.31,2.36,6.38,4.95,9.22,7.78l-17.38,19.99c-4.85-4.36-9.79-7.78-14.81-10.26
		c-5.03-2.48-10.67-3.71-16.94-3.71c-5.2,0-10.02,1-14.45,3.01c-4.43,2.01-8.25,4.77-11.44,8.31c-3.19,3.54-5.67,7.64-7.45,12.29
		c-1.77,4.66-2.66,9.64-2.66,14.94v0.35c0,5.31,0.89,10.32,2.66,15.03c1.77,4.72,4.23,8.84,7.36,12.38
		c3.13,3.54,6.92,6.34,11.35,8.4c4.43,2.06,9.31,3.09,14.63,3.09c7.09,0,13.09-1.3,18-3.89c4.9-2.59,9.78-6.13,14.63-10.61
		l17.38,17.51C2586.86,2089.55,2583.54,2092.61,2580.12,2095.32z"/>
	<path class="st33" d="M2600.86,2106.11v-123.81h27.31v123.81H2600.86z"/>
	<path class="st33" d="M2741.31,2044.39c-2.6,5.42-6.18,9.96-10.73,13.62c-4.55,3.65-9.87,6.4-15.96,8.22
		c-6.09,1.83-12.62,2.74-19.59,2.74h-20.75v37.14h-27.31v-123.81h50.72c7.45,0,14.1,1.03,19.95,3.1c5.85,2.06,10.82,4.98,14.89,8.75
		c4.08,3.78,7.21,8.29,9.4,13.53c2.19,5.25,3.28,11.05,3.28,17.42v0.35C2745.21,2032.65,2743.91,2038.96,2741.31,2044.39z
		 M2717.55,2025.64c0-6.13-1.98-10.79-5.94-13.97c-3.96-3.18-9.37-4.78-16.23-4.78h-21.1v37.85h21.63c6.86,0,12.18-1.8,15.96-5.39
		c3.78-3.59,5.67-8.05,5.67-13.35V2025.64z"/>
	<path class="st33" d="M2845.58,2106.11l-11.35-27.77h-52.49l-11.35,27.77h-27.84l53.2-124.69h25.18l53.2,124.69H2845.58z
		 M2807.98,2014.14l-16.49,40.15h32.98L2807.98,2014.14z"/>
	<path class="st33" d="M2881.05,2106.11v-123.81h27.31v99.22h61.89v24.58H2881.05z"/>
</g>
</svg>
